<svg width="120" height="120" viewBox="0 0 120 120" fill="none" xmlns="http://www.w3.org/2000/svg">
<rect width="120" height="120" fill="white"/>
<path d="M102.578 93.92C102.498 93.6533 102.618 93.48 102.938 93.4C103.285 93.2933 103.698 93.2933 104.178 93.4C104.658 93.5067 105.111 93.72 105.538 94.04C105.965 94.36 106.258 94.8 106.418 95.36C106.578 95.9733 106.485 96.52 106.138 97C105.818 97.5067 105.338 97.8267 104.698 97.96C104.351 98.0133 103.951 97.9733 103.498 97.84C103.045 97.7067 102.831 97.4133 102.858 96.96C102.885 96.6667 102.885 96.2533 102.858 95.72C102.858 95.1867 102.765 94.5867 102.578 93.92Z" fill="#FF6B35"/>
<path d="M79.7891 70C80.2157 69.68 80.7091 69.3333 81.2691 68.96C81.8291 68.5867 82.3491 68.2533 82.8291 67.96C83.3357 67.64 83.6824 67.4533 83.8691 67.4C84.2424 67.2667 84.5624 67.28 84.8291 67.44C85.0957 67.5733 85.2291 67.8133 85.2291 68.16V78.48H90.2291V68.72C90.1224 68.56 89.8824 68.6 89.5091 68.84C88.5224 69.4533 87.6291 69.3467 86.8291 68.52C87.2557 68.2 87.7757 67.8267 88.3891 67.4C89.0291 66.9733 89.6291 66.5867 90.1891 66.24C90.7491 65.8933 91.1224 65.6933 91.3091 65.64C91.6824 65.5067 92.0024 65.52 92.2691 65.68C92.5357 65.8133 92.6691 66.0533 92.6691 66.4L92.6291 87.04C92.6291 87.2533 92.5491 87.4667 92.3891 87.68C92.2557 87.8933 92.0957 88.0533 91.9091 88.16C91.6424 88.2933 91.3491 88.3733 91.0291 88.4C90.7091 88.4 90.4291 88.36 90.1891 88.28V80.24H85.2291V86.24C85.2291 86.4533 85.1491 86.6667 84.9891 86.88C84.8557 87.0933 84.6957 87.2533 84.5091 87.36C84.2424 87.4933 83.9491 87.5733 83.6291 87.6C83.3091 87.6 83.0291 87.56 82.7891 87.48V70.4C82.7624 70.32 82.7091 70.2667 82.6291 70.24C82.5491 70.1867 82.4024 70.2267 82.1891 70.36C81.7891 70.6 81.3757 70.7067 80.9491 70.68C80.5491 70.6267 80.1624 70.4 79.7891 70ZM70.8291 70C70.8557 69.7867 70.9224 69.5467 71.0291 69.28C71.1357 69.0133 71.2424 68.7867 71.3491 68.6C71.5891 68.28 71.8024 68.12 71.9891 68.12C72.2024 68.12 72.4424 68.2667 72.7091 68.56C74.3891 70.16 76.4557 71.44 78.9091 72.4C78.8824 72.6667 78.8024 72.8533 78.6691 72.96C78.5357 73.04 78.2691 73.0667 77.8691 73.04C77.2824 72.96 76.5891 72.8267 75.7891 72.64C75.0157 72.4533 74.2291 72.2133 73.4291 71.92C72.6557 71.6267 71.9491 71.3333 71.3091 71.04C70.9091 70.8533 70.7491 70.5067 70.8291 70ZM71.9091 88.76C70.7091 88.76 69.5624 88.52 68.4691 88.04C67.4024 87.56 66.5224 86.88 65.8291 86C65.1357 85.0933 64.7891 84.04 64.7891 82.84C64.7891 81.6667 65.1224 80.6133 65.7891 79.68C66.4557 78.7467 67.3491 77.9867 68.4691 77.4C69.6157 76.8133 70.8824 76.4533 72.2691 76.32C73.6824 76.1867 75.1091 76.3333 76.5491 76.76L76.8291 76.48C75.8957 75.9733 74.9224 75.6267 73.9091 75.44C72.9224 75.2267 71.9224 75.0933 70.9091 75.04C69.6824 74.96 68.5091 75.0133 67.3891 75.2C66.2691 75.36 65.2691 75.5733 64.3891 75.84C63.5357 76.08 62.8691 76.3067 62.3891 76.52C62.0157 76.68 61.7357 76.6 61.5491 76.28C61.3891 75.9333 61.5224 75.6267 61.9491 75.36C62.3491 75.0933 63.0157 74.8 63.9491 74.48C64.8824 74.1333 66.0024 73.84 67.3091 73.6C68.6157 73.3333 70.0291 73.24 71.5491 73.32C72.4291 73.3467 73.3757 73.4533 74.3891 73.64C75.4024 73.8 76.3757 74.04 77.3091 74.36C78.2691 74.6533 79.0824 75.04 79.7491 75.52C80.0157 75.68 80.0691 75.9067 79.9091 76.2C79.7491 76.4933 79.5757 76.76 79.3891 77C78.9891 77.48 78.6424 77.7467 78.3491 77.8C78.0557 77.8267 77.7624 77.8 77.4691 77.72C76.1624 77.32 74.9091 77.16 73.7091 77.24C72.5357 77.32 71.4691 77.6 70.5091 78.08C69.5757 78.56 68.8291 79.2 68.2691 80C67.7357 80.8 67.4691 81.7067 67.4691 82.72C67.4691 84.0533 67.9091 85.1333 68.7891 85.96C69.6691 86.76 70.7224 87.16 71.9491 87.16C73.2024 87.16 74.2157 86.8133 74.9891 86.12C75.7891 85.4267 76.1891 84.5867 76.1891 83.6C76.1891 82.9867 76.0557 82.4933 75.7891 82.12C75.5491 81.7467 75.2157 81.48 74.7891 81.32C74.6557 81.2667 74.5357 81.2533 74.4291 81.28C74.3491 81.28 74.2424 81.28 74.1091 81.28C73.8157 81.28 73.6424 81.1733 73.5891 80.96C73.5357 80.7467 73.5224 80.5467 73.5491 80.36C73.6824 79.88 73.9757 79.5067 74.4291 79.24C74.8824 78.9467 75.3224 78.8667 75.7491 79C76.1491 79.1067 76.5891 79.3333 77.0691 79.68C77.5491 80.0267 77.9624 80.5067 78.3091 81.12C78.6557 81.7067 78.8291 82.4133 78.8291 83.24C78.8291 84.3867 78.4957 85.3733 77.8291 86.2C77.1624 87.0267 76.2957 87.6667 75.2291 88.12C74.1891 88.5467 73.0824 88.76 71.9091 88.76ZM75.3891 96.28C75.3891 95 75.7757 93.8267 76.5491 92.76C77.3224 91.6933 78.3491 90.84 79.6291 90.2C80.9357 89.56 82.3357 89.24 83.8291 89.24C85.1624 89.24 86.2557 89.44 87.1091 89.84C87.9624 90.2133 88.4691 90.5333 88.6291 90.8L88.3491 91.08C86.3757 90.52 84.6157 90.4133 83.0691 90.76C81.5224 91.1067 80.3091 91.7733 79.4291 92.76C78.5491 93.72 78.1091 94.8667 78.1091 96.2C78.1091 97.6933 78.6024 98.9333 79.5891 99.92C80.6024 100.933 81.9757 101.44 83.7091 101.44C85.2291 101.44 86.4424 101.013 87.3491 100.16C88.2557 99.3067 88.7224 98.3067 88.7491 97.16C88.7757 96.6267 88.6824 96.1067 88.4691 95.6C88.2824 95.0933 87.9357 94.6933 87.4291 94.4C87.2691 94.2933 87.1357 94.2667 87.0291 94.32C86.9224 94.3733 86.7757 94.3867 86.5891 94.36C86.4824 94.3067 86.3757 94.2133 86.2691 94.08C86.1891 93.92 86.2024 93.7067 86.3091 93.44C86.4691 92.96 86.7624 92.6133 87.1891 92.4C87.6424 92.16 88.0424 92.08 88.3891 92.16C88.7624 92.24 89.1891 92.48 89.6691 92.88C90.1491 93.2533 90.5624 93.76 90.9091 94.4C91.2824 95.04 91.4691 95.8 91.4691 96.68C91.4957 97.9867 91.1357 99.1067 90.3891 100.04C89.6424 101 88.6691 101.733 87.4691 102.24C86.2691 102.747 84.9891 103 83.6291 103C82.2424 103 80.9224 102.733 79.6691 102.2C78.4157 101.693 77.3891 100.933 76.5891 99.92C75.8157 98.9333 75.4157 97.72 75.3891 96.28Z" fill="black"/>
<path d="M53 66.32V101.16C53 101.373 52.92 101.587 52.76 101.8C52.6267 102.013 52.4667 102.173 52.28 102.28C52.0133 102.413 51.72 102.48 51.4 102.48C51.08 102.507 50.8 102.48 50.56 102.4V86.04H46.44C45.88 86.04 45.3733 86.0933 44.92 86.2C44.4667 86.3067 44.0933 86.5867 43.8 87.04C43.72 87.1467 43.5733 87.2 43.36 87.2C43.1467 87.1733 43.04 87 43.04 86.68V85C43.04 84.7333 43.12 84.5467 43.28 84.44C43.36 84.3867 43.4533 84.3467 43.56 84.32C43.6933 84.2933 43.9333 84.28 44.28 84.28H50.56V77.24H46.32C45.76 77.24 45.2533 77.2933 44.8 77.4C44.3467 77.5067 43.9733 77.7867 43.68 78.24C43.6 78.3467 43.4533 78.4 43.24 78.4C43.0267 78.3733 42.92 78.2 42.92 77.88V76.2C42.92 75.9333 43 75.7467 43.16 75.64C43.24 75.5867 43.3333 75.5467 43.44 75.52C43.5733 75.4933 43.8133 75.48 44.16 75.48H50.56V68.64C50.5333 68.6133 50.4667 68.6133 50.36 68.64C50.2533 68.64 50.08 68.7067 49.84 68.84C48.8 69.4 47.9067 69.2933 47.16 68.52C47.5867 68.2267 48.1067 67.8667 48.72 67.44C49.36 66.9867 49.96 66.5733 50.52 66.2C51.08 65.8267 51.4533 65.6133 51.64 65.56C52.0133 65.4267 52.3333 65.44 52.6 65.6C52.8667 65.7333 53 65.9733 53 66.32ZM24.52 80.76C24.5467 79.4 24.9467 78.08 25.72 76.8C26.4933 75.52 27.6133 74.4667 29.08 73.64C30.5733 72.8133 32.3467 72.4267 34.4 72.48C35.4667 72.48 36.3733 72.6133 37.12 72.88C37.8933 73.12 38.5067 73.3867 38.96 73.68C39.4133 73.9733 39.7067 74.1867 39.84 74.32L39.6 74.68C39.0133 74.4667 38.36 74.28 37.64 74.12C36.92 73.96 36.2533 73.88 35.64 73.88C34.0667 73.8267 32.64 74.1067 31.36 74.72C30.1067 75.3067 29.1067 76.12 28.36 77.16C27.64 78.2 27.28 79.3733 27.28 80.68C27.28 82.0667 27.5867 83.2667 28.2 84.28C28.8133 85.2933 29.6133 86.08 30.6 86.64C31.6133 87.1733 32.6667 87.44 33.76 87.44C34.8533 87.44 35.8533 87.2 36.76 86.72C37.6667 86.2133 38.4 85.5467 38.96 84.72C39.52 83.8667 39.8133 82.9067 39.84 81.84C39.8667 81.1467 39.7333 80.4933 39.44 79.88C39.1733 79.24 38.7733 78.7467 38.24 78.4C38.0533 78.2667 37.88 78.2133 37.72 78.24C37.5867 78.2667 37.44 78.2533 37.28 78.2C37.0933 78.12 36.9867 77.9867 36.96 77.8C36.9333 77.6133 36.96 77.4267 37.04 77.24C37.2533 76.7867 37.5733 76.4533 38 76.24C38.4267 76.0267 38.8133 75.9733 39.16 76.08C40.0133 76.32 40.7867 76.9067 41.48 77.84C42.2 78.7733 42.56 79.9333 42.56 81.32C42.56 82.8933 42.1467 84.2533 41.32 85.4C40.52 86.5467 39.4533 87.44 38.12 88.08C36.8133 88.6933 35.4133 89 33.92 89C32.7733 89 31.64 88.8267 30.52 88.48C29.4 88.1067 28.3867 87.5733 27.48 86.88C26.5733 86.16 25.8533 85.2933 25.32 84.28C24.7867 83.24 24.52 82.0667 24.52 80.76Z" fill="black"/>
<path d="M84.1491 28.6C84.5757 28.3067 85.0957 27.9467 85.7091 27.52C86.3491 27.0667 86.9491 26.6533 87.5091 26.28C88.0691 25.9067 88.4424 25.6933 88.6291 25.64C89.0024 25.5067 89.3224 25.52 89.5891 25.68C89.8557 25.8133 89.9891 26.0533 89.9891 26.4V37.04H91.0291C92.1491 37.04 93.1891 36.9733 94.1491 36.84C95.1091 36.68 95.8024 36.3867 96.2291 35.96C96.2824 35.9067 96.3624 35.8533 96.4691 35.8C96.5757 35.72 96.6957 35.7067 96.8291 35.76C96.9624 35.8133 97.0424 35.9067 97.0691 36.04C97.0957 36.1733 97.1091 36.2667 97.1091 36.32V37.8C97.1091 38.1733 97.0557 38.44 96.9491 38.6C96.8424 38.7333 96.6424 38.8 96.3491 38.8H89.9891V44.6C89.9891 44.8133 89.9091 45.0267 89.7491 45.24C89.6157 45.4533 89.4557 45.6133 89.2691 45.72C89.0024 45.8533 88.7091 45.9333 88.3891 45.96C88.0691 45.96 87.7891 45.92 87.5491 45.84V28.72C87.5224 28.6933 87.4557 28.6933 87.3491 28.72C87.2424 28.72 87.0691 28.7867 86.8291 28.92C85.7891 29.48 84.8957 29.3733 84.1491 28.6ZM73.3091 45.04C71.8691 45.0667 70.5757 44.92 69.4291 44.6C68.3091 44.28 67.3491 43.8667 66.5491 43.36C66.1224 43.0667 65.7757 42.76 65.5091 42.44C65.2691 42.0933 65.1491 41.7067 65.1491 41.28V32.88C65.0424 32.88 64.9224 32.9067 64.7891 32.96C64.6557 33.0133 64.5224 33.1733 64.3891 33.44C64.3357 33.5467 64.2691 33.6533 64.1891 33.76C64.1091 33.84 64.0024 33.88 63.8691 33.88C63.5491 33.88 63.3891 33.6667 63.3891 33.24V32.16C63.3891 31.7867 63.4691 31.52 63.6291 31.36C63.8157 31.1733 64.0424 31.08 64.3091 31.08H76.4291C77.0424 31.08 77.5091 31.0533 77.8291 31C78.1491 30.9467 78.4957 30.84 78.8691 30.68C79.1891 30.5467 79.4024 30.4 79.5091 30.24C79.5624 30.1867 79.6424 30.1333 79.7491 30.08C79.8557 30 79.9757 29.9867 80.1091 30.04C80.2691 30.0933 80.3624 30.1867 80.3891 30.32C80.4157 30.4267 80.4291 30.52 80.4291 30.6V31.88C80.4291 32.04 80.4157 32.1867 80.3891 32.32C80.3624 32.4533 80.2824 32.5733 80.1491 32.68C80.1224 32.7067 80.0424 32.7333 79.9091 32.76C79.8024 32.7867 79.5757 32.8133 79.2291 32.84C78.8824 32.84 78.3224 32.8533 77.5491 32.88C76.7757 32.88 75.7091 32.88 74.3491 32.88H67.5891V40.2C67.5891 40.6267 67.4691 40.96 67.2291 41.2C67.0157 41.44 66.6691 41.5467 66.1891 41.52C66.7491 41.9467 67.6424 42.3067 68.8691 42.6C70.0957 42.8667 71.4024 42.9867 72.7891 42.96C74.7357 42.9333 76.7357 42.6133 78.7891 42C80.8424 41.3867 82.7357 40.2267 84.4691 38.52C84.8157 38.6533 85.0157 38.88 85.0691 39.2C85.1224 39.4933 85.0424 39.7733 84.8291 40.04C83.9757 41.1333 82.9091 42.0533 81.6291 42.8C80.3757 43.52 79.0291 44.0667 77.5891 44.44C76.1491 44.8133 74.7224 45.0133 73.3091 45.04ZM70.0291 55.44V54.2C70.0291 53.5867 70.3091 53.28 70.8691 53.28H86.1491C86.5224 52.9067 86.8157 52.3333 87.0291 51.56C87.2424 50.76 87.3224 50.1067 87.2691 49.6H74.3891C73.6691 49.6 73.1091 49.64 72.7091 49.72C72.3357 49.7733 72.0024 49.9067 71.7091 50.12C71.6024 50.2 71.5091 50.2933 71.4291 50.4C71.3757 50.48 71.3224 50.5467 71.2691 50.6C71.1357 50.7867 70.9624 50.84 70.7491 50.76C70.6424 50.7067 70.5624 50.64 70.5091 50.56C70.4824 50.4533 70.4691 50.3733 70.4691 50.32V48.68C70.4691 48.5467 70.4824 48.4133 70.5091 48.28C70.5357 48.1467 70.6024 48.04 70.7091 47.96C70.7624 47.9067 70.8557 47.88 70.9891 47.88C71.1491 47.8533 71.4957 47.84 72.0291 47.84C72.5891 47.8133 73.4957 47.8 74.7491 47.8H89.2691C89.7491 47.8 90.0157 48.0267 90.0691 48.48C90.1491 48.9333 90.0957 49.4933 89.9091 50.16C89.7224 50.8 89.4824 51.4133 89.1891 52C88.8957 52.5867 88.6424 53.0133 88.4291 53.28H88.9091C89.3091 53.28 89.6024 53.4133 89.7891 53.68C89.9757 53.92 90.0691 54.2267 90.0691 54.6V55.08H74.3491C74.6424 56.1733 75.4557 57.1734 76.7891 58.08C78.1224 58.9867 79.7624 59.5867 81.7091 59.88C83.5491 60.1467 85.2824 60.2134 86.9091 60.08C88.5357 59.9467 90.0157 59.7067 91.3491 59.36C91.6424 59.28 91.8691 59.3333 92.0291 59.52C92.2157 59.7333 92.2957 59.96 92.2691 60.2C92.2691 60.4667 92.1357 60.6533 91.8691 60.76C90.9357 61.08 89.8024 61.3333 88.4691 61.52C87.1357 61.7067 85.7624 61.7867 84.3491 61.76C82.9624 61.76 81.6691 61.6533 80.4691 61.44C78.4691 61.0667 76.6424 60.36 74.9891 59.32C73.3357 58.3067 72.1624 56.9067 71.4691 55.12C71.3891 55.12 71.3091 55.1467 71.2291 55.2C71.1757 55.2267 71.1091 55.3467 71.0291 55.56C70.9224 55.8533 70.7491 56 70.5091 56C70.1891 56 70.0291 55.8133 70.0291 55.44Z" fill="#FF6B35"/>
<path d="M52.88 26.4V60.76C52.88 60.9733 52.8 61.1867 52.64 61.4C52.5067 61.6134 52.3467 61.7733 52.16 61.88C51.8933 62.0133 51.6 62.08 51.28 62.08C50.96 62.1067 50.68 62.08 50.44 62V28.72C50.4133 28.6933 50.3467 28.6933 50.24 28.72C50.1333 28.72 49.96 28.7867 49.72 28.92C48.68 29.48 47.7867 29.3733 47.04 28.6C47.4667 28.3067 47.9867 27.9467 48.6 27.52C49.24 27.0667 49.84 26.6533 50.4 26.28C50.96 25.9067 51.3333 25.6933 51.52 25.64C51.8933 25.5067 52.2133 25.52 52.48 25.68C52.7467 25.8133 52.88 26.0533 52.88 26.4ZM25.28 40.64C25.28 39.2533 25.6667 37.9333 26.44 36.68C27.2133 35.4 28.3333 34.36 29.8 33.56C31.2667 32.76 33.0267 32.3733 35.08 32.4C36.12 32.4 37.0133 32.5333 37.76 32.8C38.5067 33.04 39.1067 33.3067 39.56 33.6C40.04 33.8667 40.3333 34.0667 40.44 34.2L40.2 34.56C39.6133 34.2933 38.96 34.0933 38.24 33.96C37.5467 33.8267 36.8933 33.76 36.28 33.76C34.7333 33.7067 33.3333 33.9867 32.08 34.6C30.8267 35.1867 29.84 36 29.12 37.04C28.4 38.08 28.04 39.2533 28.04 40.56C28.04 41.92 28.3467 43.0933 28.96 44.08C29.5733 45.0667 30.36 45.8267 31.32 46.36C32.3067 46.8933 33.3467 47.16 34.44 47.16C35.5333 47.16 36.52 46.9333 37.4 46.48C38.28 46 38.9867 45.3733 39.52 44.6C40.08 43.8 40.3733 42.92 40.4 41.96C40.4533 40.1733 39.9467 38.9333 38.88 38.24C38.6933 38.1067 38.52 38.0533 38.36 38.08C38.2267 38.1067 38.08 38.0933 37.92 38.04C37.7333 37.96 37.6267 37.8267 37.6 37.64C37.5733 37.4533 37.6 37.2667 37.68 37.08C37.8667 36.6267 38.1733 36.2933 38.6 36.08C39.0533 35.8667 39.4533 35.8133 39.8 35.92C40.6533 36.16 41.4267 36.7467 42.12 37.68C42.8133 38.6133 43.16 39.76 43.16 41.12C43.16 42.6667 42.7467 44.0133 41.92 45.16C41.12 46.3067 40.0667 47.1867 38.76 47.8C37.48 48.4133 36.0933 48.72 34.6 48.72C33.08 48.72 31.6 48.4133 30.16 47.8C28.7467 47.16 27.5733 46.24 26.64 45.04C25.7333 43.84 25.28 42.3733 25.28 40.64Z" fill="#FF6B35"/>
</svg>
