<svg width="167" height="38" viewBox="0 0 167 38" fill="none" xmlns="http://www.w3.org/2000/svg">
<path d="M162.876 28.4509C162.796 28.1843 162.916 28.0109 163.236 27.9309C163.583 27.8243 163.996 27.8243 164.476 27.9309C164.956 28.0376 165.41 28.2509 165.836 28.5709C166.263 28.8909 166.556 29.3309 166.716 29.8909C166.876 30.5043 166.783 31.0509 166.436 31.5309C166.116 32.0376 165.636 32.3576 164.996 32.4909C164.65 32.5443 164.25 32.5043 163.796 32.3709C163.343 32.2376 163.13 31.9443 163.156 31.4909C163.183 31.1976 163.183 30.7843 163.156 30.2509C163.156 29.7176 163.063 29.1176 162.876 28.4509Z" fill="#FF6B35"/>
<path d="M138.087 4.53091C138.514 4.21091 139.007 3.86424 139.567 3.49091C140.127 3.11758 140.647 2.78424 141.127 2.49091C141.634 2.17091 141.981 1.98424 142.167 1.93091C142.541 1.79758 142.861 1.81091 143.127 1.97091C143.394 2.10424 143.527 2.34425 143.527 2.69091V13.0109H148.527V3.25091C148.421 3.09091 148.181 3.13091 147.807 3.37091C146.821 3.98424 145.927 3.87758 145.127 3.05091C145.554 2.73091 146.074 2.35758 146.687 1.93091C147.327 1.50424 147.927 1.11758 148.487 0.77091C149.047 0.424243 149.421 0.224243 149.607 0.170911C149.981 0.0375775 150.301 0.0509112 150.567 0.210911C150.834 0.344244 150.967 0.584243 150.967 0.93091L150.927 21.5709C150.927 21.7842 150.847 21.9976 150.687 22.2109C150.554 22.4242 150.394 22.5842 150.207 22.6909C149.941 22.8242 149.647 22.9042 149.327 22.9309C149.007 22.9309 148.727 22.8909 148.487 22.8109V14.7709H143.527V20.7709C143.527 20.9842 143.447 21.1976 143.287 21.4109C143.154 21.6242 142.994 21.7842 142.807 21.8909C142.541 22.0242 142.247 22.1042 141.927 22.1309C141.607 22.1309 141.327 22.0909 141.087 22.0109V4.93091C141.061 4.85091 141.007 4.79758 140.927 4.77091C140.847 4.71758 140.701 4.75758 140.487 4.89091C140.087 5.13091 139.674 5.23758 139.247 5.21091C138.847 5.15758 138.461 4.93091 138.087 4.53091ZM129.127 4.53091C129.154 4.31758 129.221 4.07758 129.327 3.81091C129.434 3.54424 129.541 3.31758 129.647 3.13091C129.887 2.81091 130.101 2.65091 130.287 2.65091C130.501 2.65091 130.741 2.79758 131.007 3.09091C132.687 4.69091 134.754 5.97091 137.207 6.93091C137.181 7.19758 137.101 7.38424 136.967 7.49091C136.834 7.57091 136.567 7.59758 136.167 7.57091C135.581 7.49091 134.887 7.35758 134.087 7.17091C133.314 6.98424 132.527 6.74424 131.727 6.45091C130.954 6.15758 130.247 5.86424 129.607 5.57091C129.207 5.38424 129.047 5.03758 129.127 4.53091ZM130.207 23.2909C129.007 23.2909 127.861 23.0509 126.767 22.5709C125.701 22.0909 124.821 21.4109 124.127 20.5309C123.434 19.6242 123.087 18.5709 123.087 17.3709C123.087 16.1976 123.421 15.1442 124.087 14.2109C124.754 13.2776 125.647 12.5176 126.767 11.9309C127.914 11.3442 129.181 10.9842 130.567 10.8509C131.981 10.7176 133.407 10.8642 134.847 11.2909L135.127 11.0109C134.194 10.5042 133.221 10.1576 132.207 9.97091C131.221 9.75758 130.221 9.62424 129.207 9.57091C127.981 9.49091 126.807 9.54424 125.687 9.73091C124.567 9.89091 123.567 10.1042 122.687 10.3709C121.834 10.6109 121.167 10.8376 120.687 11.0509C120.314 11.2109 120.034 11.1309 119.847 10.8109C119.687 10.4642 119.821 10.1576 120.247 9.89091C120.647 9.62425 121.314 9.33091 122.247 9.01091C123.181 8.66424 124.301 8.37091 125.607 8.13091C126.914 7.86424 128.327 7.77091 129.847 7.85091C130.727 7.87758 131.674 7.98424 132.687 8.17091C133.701 8.33091 134.674 8.57091 135.607 8.89091C136.567 9.18425 137.381 9.57091 138.047 10.0509C138.314 10.2109 138.367 10.4376 138.207 10.7309C138.047 11.0242 137.874 11.2909 137.687 11.5309C137.287 12.0109 136.941 12.2776 136.647 12.3309C136.354 12.3576 136.061 12.3309 135.767 12.2509C134.461 11.8509 133.207 11.6909 132.007 11.7709C130.834 11.8509 129.767 12.1309 128.807 12.6109C127.874 13.0909 127.127 13.7309 126.567 14.5309C126.034 15.3309 125.767 16.2376 125.767 17.2509C125.767 18.5842 126.207 19.6642 127.087 20.4909C127.967 21.2909 129.021 21.6909 130.247 21.6909C131.501 21.6909 132.514 21.3442 133.287 20.6509C134.087 19.9576 134.487 19.1176 134.487 18.1309C134.487 17.5176 134.354 17.0242 134.087 16.6509C133.847 16.2776 133.514 16.0109 133.087 15.8509C132.954 15.7976 132.834 15.7842 132.727 15.8109C132.647 15.8109 132.541 15.8109 132.407 15.8109C132.114 15.8109 131.941 15.7042 131.887 15.4909C131.834 15.2776 131.821 15.0776 131.847 14.8909C131.981 14.4109 132.274 14.0376 132.727 13.7709C133.181 13.4776 133.621 13.3976 134.047 13.5309C134.447 13.6376 134.887 13.8642 135.367 14.2109C135.847 14.5576 136.261 15.0376 136.607 15.6509C136.954 16.2376 137.127 16.9442 137.127 17.7709C137.127 18.9176 136.794 19.9042 136.127 20.7309C135.461 21.5576 134.594 22.1976 133.527 22.6509C132.487 23.0776 131.381 23.2909 130.207 23.2909ZM133.687 30.8109C133.687 29.5309 134.074 28.3576 134.847 27.2909C135.621 26.2242 136.647 25.3709 137.927 24.7309C139.234 24.0909 140.634 23.7709 142.127 23.7709C143.461 23.7709 144.554 23.9709 145.407 24.3709C146.261 24.7442 146.767 25.0642 146.927 25.3309L146.647 25.6109C144.674 25.0509 142.914 24.9442 141.367 25.2909C139.821 25.6376 138.607 26.3042 137.727 27.2909C136.847 28.2509 136.407 29.3976 136.407 30.7309C136.407 32.2242 136.901 33.4642 137.887 34.4509C138.901 35.4642 140.274 35.9709 142.007 35.9709C143.527 35.9709 144.741 35.5442 145.647 34.6909C146.554 33.8376 147.021 32.8376 147.047 31.6909C147.074 31.1576 146.981 30.6376 146.767 30.1309C146.581 29.6242 146.234 29.2242 145.727 28.9309C145.567 28.8242 145.434 28.7976 145.327 28.8509C145.221 28.9042 145.074 28.9176 144.887 28.8909C144.781 28.8376 144.674 28.7442 144.567 28.6109C144.487 28.4509 144.501 28.2376 144.607 27.9709C144.767 27.4909 145.061 27.1442 145.487 26.9309C145.941 26.6909 146.341 26.6109 146.687 26.6909C147.061 26.7709 147.487 27.0109 147.967 27.4109C148.447 27.7842 148.861 28.2909 149.207 28.9309C149.581 29.5709 149.767 30.3309 149.767 31.2109C149.794 32.5176 149.434 33.6376 148.687 34.5709C147.941 35.5309 146.967 36.2642 145.767 36.7709C144.567 37.2776 143.287 37.5309 141.927 37.5309C140.541 37.5309 139.221 37.2642 137.967 36.7309C136.714 36.2242 135.687 35.4642 134.887 34.4509C134.114 33.4642 133.714 32.2509 133.687 30.8109Z" fill="black"/>
<path d="M109.298 0.85091V35.6909C109.298 35.9042 109.218 36.1176 109.058 36.3309C108.925 36.5442 108.765 36.7042 108.578 36.8109C108.311 36.9442 108.018 37.0109 107.698 37.0109C107.378 37.0376 107.098 37.0109 106.858 36.9309V20.5709H102.738C102.178 20.5709 101.671 20.6242 101.218 20.7309C100.765 20.8376 100.391 21.1176 100.098 21.5709C100.018 21.6776 99.8715 21.7309 99.6581 21.7309C99.4448 21.7042 99.3381 21.5309 99.3381 21.2109V19.5309C99.3381 19.2642 99.4181 19.0776 99.5781 18.9709C99.6581 18.9176 99.7515 18.8776 99.8581 18.8509C99.9915 18.8242 100.231 18.8109 100.578 18.8109H106.858V11.7709H102.618C102.058 11.7709 101.551 11.8242 101.098 11.9309C100.645 12.0376 100.271 12.3176 99.9781 12.7709C99.8981 12.8776 99.7515 12.9309 99.5381 12.9309C99.3248 12.9042 99.2181 12.7309 99.2181 12.4109V10.7309C99.2181 10.4642 99.2981 10.2776 99.4581 10.1709C99.5381 10.1176 99.6315 10.0776 99.7381 10.0509C99.8715 10.0242 100.111 10.0109 100.458 10.0109H106.858V3.17091C106.831 3.14424 106.765 3.14424 106.658 3.17091C106.551 3.17091 106.378 3.23757 106.138 3.37091C105.098 3.93091 104.205 3.82424 103.458 3.05091C103.885 2.75758 104.405 2.39757 105.018 1.97091C105.658 1.51757 106.258 1.10424 106.818 0.730909C107.378 0.357575 107.751 0.144242 107.938 0.0909093C108.311 -0.0424239 108.631 -0.0290912 108.898 0.130908C109.165 0.264242 109.298 0.504243 109.298 0.85091ZM80.8181 15.2909C80.8448 13.9309 81.2448 12.6109 82.0181 11.3309C82.7915 10.0509 83.9115 8.99757 85.3781 8.17091C86.8715 7.34424 88.6448 6.95758 90.6981 7.01091C91.7648 7.01091 92.6715 7.14424 93.4181 7.41091C94.1915 7.65091 94.8048 7.91758 95.2581 8.21091C95.7115 8.50424 96.0048 8.71758 96.1381 8.85091L95.8981 9.21091C95.3115 8.99757 94.6581 8.81091 93.9381 8.65091C93.2181 8.49091 92.5515 8.41091 91.9381 8.41091C90.3648 8.35757 88.9381 8.63757 87.6581 9.25091C86.4048 9.83757 85.4048 10.6509 84.6581 11.6909C83.9381 12.7309 83.5781 13.9042 83.5781 15.2109C83.5781 16.5976 83.8848 17.7976 84.4981 18.8109C85.1115 19.8242 85.9115 20.6109 86.8981 21.1709C87.9115 21.7042 88.9648 21.9709 90.0581 21.9709C91.1515 21.9709 92.1515 21.7309 93.0581 21.2509C93.9648 20.7442 94.6981 20.0776 95.2581 19.2509C95.8181 18.3976 96.1115 17.4376 96.1381 16.3709C96.1648 15.6776 96.0315 15.0242 95.7381 14.4109C95.4715 13.7709 95.0715 13.2776 94.5381 12.9309C94.3515 12.7976 94.1781 12.7442 94.0181 12.7709C93.8848 12.7976 93.7381 12.7842 93.5781 12.7309C93.3915 12.6509 93.2848 12.5176 93.2581 12.3309C93.2315 12.1442 93.2581 11.9576 93.3381 11.7709C93.5515 11.3176 93.8715 10.9842 94.2981 10.7709C94.7248 10.5576 95.1115 10.5042 95.4581 10.6109C96.3115 10.8509 97.0848 11.4376 97.7781 12.3709C98.4981 13.3042 98.8581 14.4642 98.8581 15.8509C98.8581 17.4242 98.4448 18.7842 97.6181 19.9309C96.8181 21.0776 95.7515 21.9709 94.4181 22.6109C93.1115 23.2242 91.7115 23.5309 90.2181 23.5309C89.0715 23.5309 87.9381 23.3576 86.8181 23.0109C85.6981 22.6376 84.6848 22.1042 83.7781 21.4109C82.8715 20.6909 82.1515 19.8242 81.6181 18.8109C81.0848 17.7709 80.8181 16.5976 80.8181 15.2909Z" fill="black"/>
<path d="M60.8691 3.13091C61.2957 2.83758 61.8157 2.47758 62.4291 2.05091C63.0691 1.59758 63.6691 1.18425 64.2291 0.810912C64.7891 0.437577 65.1624 0.224243 65.3491 0.170911C65.7224 0.0375775 66.0424 0.0509112 66.3091 0.210911C66.5757 0.344244 66.7091 0.584243 66.7091 0.93091V11.5709H67.7491C68.8691 11.5709 69.9091 11.5042 70.8691 11.3709C71.8291 11.2109 72.5224 10.9176 72.9491 10.4909C73.0024 10.4376 73.0824 10.3842 73.1891 10.3309C73.2957 10.2509 73.4157 10.2376 73.5491 10.2909C73.6824 10.3442 73.7624 10.4376 73.7891 10.5709C73.8157 10.7042 73.8291 10.7976 73.8291 10.8509V12.3309C73.8291 12.7042 73.7757 12.9709 73.6691 13.1309C73.5624 13.2642 73.3624 13.3309 73.0691 13.3309H66.7091V19.1309C66.7091 19.3442 66.6291 19.5576 66.4691 19.7709C66.3357 19.9842 66.1757 20.1442 65.9891 20.2509C65.7224 20.3842 65.4291 20.4642 65.1091 20.4909C64.7891 20.4909 64.5091 20.4509 64.2691 20.3709V3.25091C64.2424 3.22425 64.1757 3.22425 64.0691 3.25091C63.9624 3.25091 63.7891 3.31758 63.5491 3.45091C62.5091 4.01091 61.6157 3.90424 60.8691 3.13091ZM50.0291 19.5709C48.5891 19.5976 47.2957 19.4509 46.1491 19.1309C45.0291 18.8109 44.0691 18.3976 43.2691 17.8909C42.8424 17.5976 42.4957 17.2909 42.2291 16.9709C41.9891 16.6242 41.8691 16.2376 41.8691 15.8109V7.41091C41.7624 7.41091 41.6424 7.43758 41.5091 7.49091C41.3757 7.54424 41.2424 7.70424 41.1091 7.97091C41.0557 8.07758 40.9891 8.18424 40.9091 8.29091C40.8291 8.37091 40.7224 8.41091 40.5891 8.41091C40.2691 8.41091 40.1091 8.19758 40.1091 7.77091V6.69091C40.1091 6.31758 40.1891 6.05091 40.3491 5.89091C40.5357 5.70425 40.7624 5.61091 41.0291 5.61091H53.1491C53.7624 5.61091 54.2291 5.58424 54.5491 5.53091C54.8691 5.47758 55.2157 5.37091 55.5891 5.21091C55.9091 5.07758 56.1224 4.93091 56.2291 4.77091C56.2824 4.71758 56.3624 4.66424 56.4691 4.61091C56.5757 4.53091 56.6957 4.51758 56.8291 4.57091C56.9891 4.62424 57.0824 4.71758 57.1091 4.85091C57.1357 4.95758 57.1491 5.05091 57.1491 5.13091V6.41091C57.1491 6.57091 57.1357 6.71758 57.1091 6.85091C57.0824 6.98424 57.0024 7.10424 56.8691 7.21091C56.8424 7.23758 56.7624 7.26424 56.6291 7.29091C56.5224 7.31758 56.2957 7.34424 55.9491 7.37091C55.6024 7.37091 55.0424 7.38424 54.2691 7.41091C53.4957 7.41091 52.4291 7.41091 51.0691 7.41091H44.3091V14.7309C44.3091 15.1576 44.1891 15.4909 43.9491 15.7309C43.7357 15.9709 43.3891 16.0776 42.9091 16.0509C43.4691 16.4776 44.3624 16.8376 45.5891 17.1309C46.8157 17.3976 48.1224 17.5176 49.5091 17.4909C51.4557 17.4642 53.4557 17.1442 55.5091 16.5309C57.5624 15.9176 59.4557 14.7576 61.1891 13.0509C61.5357 13.1842 61.7357 13.4109 61.7891 13.7309C61.8424 14.0242 61.7624 14.3042 61.5491 14.5709C60.6957 15.6642 59.6291 16.5842 58.3491 17.3309C57.0957 18.0509 55.7491 18.5976 54.3091 18.9709C52.8691 19.3442 51.4424 19.5442 50.0291 19.5709ZM46.7491 29.9709V28.7309C46.7491 28.1176 47.0291 27.8109 47.5891 27.8109H62.8691C63.2424 27.4376 63.5357 26.8642 63.7491 26.0909C63.9624 25.2909 64.0424 24.6376 63.9891 24.1309H51.1091C50.3891 24.1309 49.8291 24.1709 49.4291 24.2509C49.0557 24.3042 48.7224 24.4376 48.4291 24.6509C48.3224 24.7309 48.2291 24.8242 48.1491 24.9309C48.0957 25.0109 48.0424 25.0776 47.9891 25.1309C47.8557 25.3176 47.6824 25.3709 47.4691 25.2909C47.3624 25.2376 47.2824 25.1709 47.2291 25.0909C47.2024 24.9842 47.1891 24.9042 47.1891 24.8509V23.2109C47.1891 23.0776 47.2024 22.9442 47.2291 22.8109C47.2557 22.6776 47.3224 22.5709 47.4291 22.4909C47.4824 22.4376 47.5757 22.4109 47.7091 22.4109C47.8691 22.3842 48.2157 22.3709 48.7491 22.3709C49.3091 22.3442 50.2157 22.3309 51.4691 22.3309H65.9891C66.4691 22.3309 66.7357 22.5576 66.7891 23.0109C66.8691 23.4642 66.8157 24.0242 66.6291 24.6909C66.4424 25.3309 66.2024 25.9442 65.9091 26.5309C65.6157 27.1176 65.3624 27.5442 65.1491 27.8109H65.6291C66.0291 27.8109 66.3224 27.9442 66.5091 28.2109C66.6957 28.4509 66.7891 28.7576 66.7891 29.1309V29.6109H51.0691C51.3624 30.7042 52.1757 31.7042 53.5091 32.6109C54.8424 33.5176 56.4824 34.1176 58.4291 34.4109C60.2691 34.6776 62.0024 34.7442 63.6291 34.6109C65.2557 34.4776 66.7357 34.2376 68.0691 33.8909C68.3624 33.8109 68.5891 33.8642 68.7491 34.0509C68.9357 34.2642 69.0157 34.4909 68.9891 34.7309C68.9891 34.9976 68.8557 35.1842 68.5891 35.2909C67.6557 35.6109 66.5224 35.8642 65.1891 36.0509C63.8557 36.2376 62.4824 36.3176 61.0691 36.2909C59.6824 36.2909 58.3891 36.1842 57.1891 35.9709C55.1891 35.5976 53.3624 34.8909 51.7091 33.8509C50.0557 32.8376 48.8824 31.4376 48.1891 29.6509C48.1091 29.6509 48.0291 29.6776 47.9491 29.7309C47.8957 29.7576 47.8291 29.8776 47.7491 30.0909C47.6424 30.3842 47.4691 30.5309 47.2291 30.5309C46.9091 30.5309 46.7491 30.3442 46.7491 29.9709Z" fill="#FF6B35"/>
<path d="M27.6 0.93091V35.2909C27.6 35.5042 27.52 35.7176 27.36 35.9309C27.2267 36.1442 27.0667 36.3042 26.88 36.4109C26.6133 36.5442 26.32 36.6109 26 36.6109C25.68 36.6376 25.4 36.6109 25.16 36.5309V3.25091C25.1333 3.22425 25.0667 3.22425 24.96 3.25091C24.8533 3.25091 24.68 3.31758 24.44 3.45091C23.4 4.01091 22.5067 3.90424 21.76 3.13091C22.1867 2.83758 22.7067 2.47758 23.32 2.05091C23.96 1.59758 24.56 1.18425 25.12 0.810912C25.68 0.437577 26.0533 0.224243 26.24 0.170911C26.6133 0.0375775 26.9333 0.0509112 27.2 0.210911C27.4667 0.344244 27.6 0.584243 27.6 0.93091ZM0 15.1709C0 13.7842 0.386667 12.4642 1.16 11.2109C1.93333 9.93091 3.05333 8.89091 4.52 8.09091C5.98667 7.29091 7.74667 6.90424 9.8 6.93091C10.84 6.93091 11.7333 7.06425 12.48 7.33091C13.2267 7.57091 13.8267 7.83758 14.28 8.13091C14.76 8.39758 15.0533 8.59758 15.16 8.73091L14.92 9.09091C14.3333 8.82424 13.68 8.62424 12.96 8.49091C12.2667 8.35758 11.6133 8.29091 11 8.29091C9.45333 8.23758 8.05333 8.51758 6.8 9.13091C5.54667 9.71758 4.56 10.5309 3.84 11.5709C3.12 12.6109 2.76 13.7842 2.76 15.0909C2.76 16.4509 3.06667 17.6242 3.68 18.6109C4.29333 19.5976 5.08 20.3576 6.04 20.8909C7.02667 21.4242 8.06667 21.6909 9.16 21.6909C10.2533 21.6909 11.24 21.4642 12.12 21.0109C13 20.5309 13.7067 19.9042 14.24 19.1309C14.8 18.3309 15.0933 17.4509 15.12 16.4909C15.1733 14.7042 14.6667 13.4642 13.6 12.7709C13.4133 12.6376 13.24 12.5842 13.08 12.6109C12.9467 12.6376 12.8 12.6242 12.64 12.5709C12.4533 12.4909 12.3467 12.3576 12.32 12.1709C12.2933 11.9842 12.32 11.7976 12.4 11.6109C12.5867 11.1576 12.8933 10.8242 13.32 10.6109C13.7733 10.3976 14.1733 10.3442 14.52 10.4509C15.3733 10.6909 16.1467 11.2776 16.84 12.2109C17.5333 13.1442 17.88 14.2909 17.88 15.6509C17.88 17.1976 17.4667 18.5442 16.64 19.6909C15.84 20.8376 14.7867 21.7176 13.48 22.3309C12.2 22.9442 10.8133 23.2509 9.32 23.2509C7.8 23.2509 6.32 22.9442 4.88 22.3309C3.46667 21.6909 2.29333 20.7709 1.36 19.5709C0.453334 18.3709 0 16.9042 0 15.1709Z" fill="#FF6B35"/>
</svg>
